<svg id="svg" version="1.1" xmlns="http://www.w3.org/2000/svg" xmlns:xlink="http://www.w3.org/1999/xlink" width="400" height="459.8890942698706" viewBox="0, 0, 400,459.8890942698706"><g id="svgg"><path d="M195.400 11.190 C 193.368 11.672,192.400 12.078,192.400 12.447 C 192.400 12.641,192.062 12.800,191.649 12.800 C 190.889 12.800,189.845 13.712,190.199 14.066 C 190.305 14.172,189.854 14.774,189.196 15.404 C 188.538 16.034,188.000 16.758,188.000 17.013 C 188.000 17.268,187.640 17.802,187.200 18.200 C 186.760 18.598,186.400 19.138,186.400 19.400 C 186.400 19.662,186.044 20.198,185.609 20.591 C 185.175 20.985,184.900 21.439,185.000 21.600 C 185.100 21.761,184.825 22.215,184.391 22.609 C 183.956 23.002,183.600 23.494,183.600 23.702 C 183.600 23.909,183.060 24.583,182.400 25.200 C 181.740 25.817,181.200 26.565,181.200 26.864 C 181.200 27.163,180.845 27.629,180.411 27.900 C 179.977 28.171,179.718 28.641,179.834 28.945 C 179.951 29.248,179.774 29.601,179.442 29.729 C 179.110 29.856,178.478 30.750,178.039 31.715 C 177.599 32.680,176.961 33.701,176.620 33.984 C 176.279 34.266,176.000 34.744,176.000 35.046 C 176.000 35.347,175.658 35.807,175.240 36.068 C 174.822 36.329,174.558 36.747,174.654 36.997 C 174.750 37.246,174.462 37.782,174.014 38.187 C 173.566 38.592,173.200 39.126,173.200 39.374 C 173.200 39.621,172.840 40.083,172.400 40.400 C 171.960 40.717,171.600 41.297,171.600 41.688 C 171.600 42.080,171.441 42.400,171.247 42.400 C 170.958 42.400,170.590 43.256,170.387 44.400 C 170.368 44.510,170.039 44.960,169.658 45.400 C 169.276 45.840,168.703 46.740,168.385 47.400 C 168.066 48.060,167.489 48.891,167.103 49.247 C 166.716 49.603,166.400 50.188,166.400 50.547 C 166.400 50.906,166.240 51.200,166.045 51.200 C 165.849 51.200,165.571 51.830,165.426 52.600 C 165.282 53.370,165.026 54.000,164.857 54.000 C 164.688 54.000,164.301 54.634,163.997 55.409 C 163.693 56.183,163.119 57.111,162.722 57.471 C 162.325 57.830,162.000 58.366,162.000 58.662 C 162.000 58.958,161.820 59.200,161.600 59.200 C 161.380 59.200,161.200 59.560,161.200 60.000 C 161.200 60.440,161.040 60.800,160.845 60.800 C 160.649 60.800,160.371 61.430,160.226 62.200 C 160.082 62.970,159.792 63.600,159.582 63.600 C 159.372 63.600,159.200 63.960,159.200 64.400 C 159.200 64.840,159.065 65.201,158.900 65.201 C 158.735 65.202,158.150 66.192,157.600 67.400 C 157.050 68.608,156.465 69.598,156.300 69.599 C 156.135 69.599,156.000 69.960,156.000 70.400 C 156.000 70.840,155.790 71.200,155.533 71.200 C 155.277 71.200,155.174 71.307,155.305 71.438 C 155.436 71.569,155.196 72.295,154.772 73.050 C 154.347 73.806,154.000 74.672,154.000 74.974 C 154.000 75.632,152.328 78.943,151.900 79.133 C 151.735 79.207,151.600 79.612,151.600 80.033 C 151.600 80.455,151.401 80.800,151.157 80.800 C 150.914 80.800,150.816 81.066,150.941 81.390 C 151.066 81.715,150.635 82.993,149.984 84.231 C 149.333 85.469,148.800 86.823,148.800 87.241 C 148.800 87.658,148.620 88.000,148.400 88.000 C 148.180 88.000,148.000 88.360,148.000 88.800 C 148.000 89.240,147.865 89.601,147.700 89.603 C 147.299 89.607,146.400 91.581,146.400 92.456 C 146.400 92.839,146.208 93.272,145.973 93.417 C 145.738 93.562,145.637 93.920,145.749 94.211 C 145.976 94.802,145.169 96.792,144.700 96.797 C 144.535 96.799,144.400 97.340,144.400 98.000 C 144.400 98.660,144.265 99.201,144.100 99.203 C 143.694 99.207,142.800 101.186,142.800 102.080 C 142.800 102.476,142.620 102.800,142.400 102.800 C 142.180 102.800,142.000 103.340,142.000 104.000 C 142.000 104.660,141.799 105.200,141.553 105.200 C 141.306 105.200,141.199 105.551,141.312 105.985 C 141.425 106.417,141.285 106.964,141.000 107.200 C 140.715 107.436,140.574 107.981,140.687 108.410 C 140.809 108.877,140.655 109.281,140.305 109.415 C 139.930 109.559,139.786 109.993,139.906 110.620 C 140.014 111.187,139.905 111.600,139.647 111.600 C 139.401 111.600,139.200 112.039,139.200 112.576 C 139.200 113.113,139.020 113.664,138.800 113.800 C 138.580 113.936,138.400 114.656,138.400 115.400 C 138.400 116.144,138.220 116.864,138.000 117.000 C 137.780 117.136,137.600 117.687,137.600 118.224 C 137.600 118.761,137.420 119.200,137.200 119.200 C 136.980 119.200,136.800 119.639,136.800 120.176 C 136.800 120.713,136.602 121.275,136.360 121.425 C 136.107 121.581,136.019 122.195,136.153 122.864 C 136.319 123.695,136.212 124.097,135.781 124.263 C 135.414 124.404,135.266 124.777,135.404 125.214 C 135.530 125.609,135.445 126.048,135.216 126.190 C 134.987 126.331,134.800 127.056,134.800 127.800 C 134.800 128.544,134.620 129.264,134.400 129.400 C 134.180 129.536,134.000 130.267,134.000 131.024 C 134.000 131.781,133.820 132.400,133.600 132.400 C 133.380 132.400,133.200 133.019,133.200 133.776 C 133.200 134.533,133.020 135.264,132.800 135.400 C 132.580 135.536,132.400 136.267,132.400 137.024 C 132.400 137.781,132.220 138.400,132.000 138.400 C 131.780 138.400,131.600 139.019,131.600 139.776 C 131.600 140.533,131.420 141.264,131.199 141.401 C 130.972 141.541,130.904 142.307,131.041 143.165 C 131.224 144.313,131.136 144.739,130.676 144.915 C 130.222 145.090,130.122 145.544,130.280 146.722 C 130.407 147.670,130.314 148.406,130.046 148.572 C 129.801 148.723,129.600 149.647,129.600 150.624 C 129.600 151.601,129.420 152.400,129.200 152.400 C 128.980 152.400,128.800 153.390,128.800 154.600 C 128.800 155.810,128.620 156.800,128.400 156.800 C 128.180 156.800,128.000 157.610,128.000 158.600 C 128.000 159.590,127.820 160.400,127.600 160.400 C 127.374 160.400,127.200 161.533,127.200 163.000 C 127.200 164.684,127.039 165.600,126.743 165.600 C 126.418 165.600,126.361 166.416,126.546 168.411 C 126.766 170.772,126.706 171.261,126.171 171.466 C 125.644 171.669,125.581 172.114,125.806 174.053 C 126.029 175.970,125.965 176.438,125.458 176.633 C 124.932 176.835,124.875 177.475,125.079 180.836 C 125.254 183.699,125.193 184.800,124.860 184.800 C 124.537 184.800,124.400 186.345,124.400 190.000 C 124.400 193.200,124.246 195.200,124.000 195.200 C 123.424 195.200,123.454 227.694,124.031 228.271 C 124.312 228.552,124.416 230.675,124.331 234.347 C 124.226 238.887,124.309 240.034,124.756 240.205 C 125.193 240.372,125.267 241.135,125.102 243.784 C 124.928 246.565,124.998 247.190,125.502 247.384 C 126.004 247.576,126.068 248.109,125.858 250.367 C 125.649 252.610,125.713 253.158,126.205 253.347 C 126.699 253.536,126.760 254.086,126.546 256.389 C 126.361 258.384,126.418 259.200,126.743 259.200 C 127.039 259.200,127.200 260.116,127.200 261.800 C 127.200 263.267,127.374 264.400,127.600 264.400 C 127.820 264.400,128.000 265.390,128.000 266.600 C 128.000 267.810,128.180 268.800,128.400 268.800 C 128.620 268.800,128.800 269.574,128.800 270.520 C 128.800 271.466,128.999 272.439,129.243 272.683 C 129.487 272.927,129.621 273.950,129.541 274.958 C 129.438 276.254,129.557 276.851,129.949 277.002 C 130.345 277.154,130.443 277.665,130.292 278.792 C 130.145 279.888,130.256 280.515,130.658 280.848 C 131.042 281.167,131.152 281.708,130.986 282.464 C 130.832 283.164,130.902 283.600,131.168 283.600 C 131.406 283.600,131.600 284.219,131.600 284.976 C 131.600 285.733,131.780 286.464,132.000 286.600 C 132.220 286.736,132.400 287.467,132.400 288.224 C 132.400 288.981,132.580 289.600,132.800 289.600 C 133.020 289.600,133.200 289.842,133.200 290.138 C 133.200 290.434,133.544 290.987,133.964 291.367 C 134.384 291.748,134.838 292.496,134.972 293.029 C 135.106 293.563,135.484 294.000,135.813 294.000 C 136.429 294.000,138.041 294.790,138.406 295.271 C 138.831 295.832,151.601 295.838,151.601 295.278 C 151.600 294.869,152.764 294.783,156.996 294.878 C 161.037 294.969,162.441 294.874,162.584 294.500 C 162.725 294.132,164.306 294.000,168.587 294.000 C 171.877 294.000,174.400 293.840,174.400 293.630 C 174.400 293.138,217.917 293.142,218.221 293.634 C 218.345 293.835,221.047 294.000,224.224 294.000 C 227.808 294.000,230.000 294.152,230.000 294.400 C 230.000 294.646,232.000 294.800,235.200 294.800 C 239.094 294.800,240.400 294.926,240.399 295.300 C 240.399 295.859,252.396 295.818,252.789 295.258 C 252.905 295.093,253.684 294.640,254.521 294.251 C 255.357 293.861,256.193 293.143,256.379 292.655 C 256.565 292.167,257.005 291.527,257.358 291.235 C 257.711 290.942,258.000 290.454,258.000 290.151 C 258.000 289.848,258.180 289.600,258.400 289.600 C 258.620 289.600,258.800 288.981,258.800 288.224 C 258.800 287.467,258.998 286.725,259.240 286.575 C 259.493 286.419,259.581 285.805,259.447 285.136 C 259.279 284.295,259.387 283.903,259.837 283.731 C 260.272 283.564,260.385 283.195,260.213 282.508 C 260.072 281.949,260.182 281.263,260.465 280.922 C 260.739 280.591,260.915 279.637,260.854 278.801 C 260.794 277.965,260.937 277.162,261.172 277.017 C 261.408 276.872,261.600 275.953,261.600 274.976 C 261.600 273.999,261.780 273.200,262.000 273.200 C 262.220 273.200,262.400 272.390,262.400 271.400 C 262.400 270.410,262.580 269.600,262.800 269.600 C 263.020 269.600,263.200 268.610,263.200 267.400 C 263.200 266.190,263.380 265.200,263.600 265.200 C 263.820 265.200,264.000 264.210,264.000 263.000 C 264.000 261.643,264.172 260.800,264.448 260.800 C 264.749 260.800,264.838 260.000,264.720 258.360 C 264.595 256.635,264.690 255.863,265.046 255.727 C 265.414 255.586,265.486 254.797,265.317 252.777 C 265.136 250.623,265.208 249.972,265.645 249.804 C 266.078 249.638,266.173 248.864,266.061 246.398 C 265.951 243.978,266.047 243.157,266.458 243.000 C 266.877 242.840,266.971 241.873,266.872 238.744 C 266.793 236.233,266.907 234.533,267.172 234.268 C 267.447 233.993,267.600 231.009,267.600 225.920 C 267.600 219.850,267.717 218.000,268.100 218.001 C 268.473 218.001,268.600 216.755,268.600 213.101 C 268.600 209.617,268.455 208.107,268.100 207.880 C 267.725 207.640,267.600 205.367,267.600 198.780 C 267.600 193.193,267.455 190.000,267.200 190.000 C 266.958 190.000,266.800 188.267,266.800 185.600 C 266.800 182.933,266.642 181.200,266.400 181.200 C 266.165 181.200,266.000 179.800,266.000 177.800 C 266.000 175.517,265.850 174.400,265.543 174.400 C 265.220 174.400,265.150 173.467,265.303 171.228 C 265.468 168.820,265.394 168.007,264.996 167.854 C 264.608 167.705,264.528 167.021,264.691 165.226 C 264.843 163.549,264.770 162.800,264.456 162.800 C 264.170 162.800,264.000 161.979,264.000 160.600 C 264.000 159.390,263.820 158.400,263.600 158.400 C 263.380 158.400,263.200 157.421,263.200 156.224 C 263.200 155.027,263.020 153.936,262.800 153.800 C 262.580 153.664,262.400 152.753,262.400 151.776 C 262.400 150.799,262.220 150.000,262.000 150.000 C 261.780 150.000,261.600 149.190,261.600 148.200 C 261.600 147.157,261.415 146.400,261.160 146.400 C 260.884 146.400,260.773 145.731,260.862 144.605 C 260.962 143.346,260.840 142.748,260.454 142.599 C 260.080 142.456,259.977 142.015,260.134 141.230 C 260.295 140.427,260.189 140.005,259.788 139.851 C 259.349 139.682,259.271 139.196,259.460 137.815 C 259.629 136.581,259.563 136.000,259.254 136.000 C 259.002 136.000,258.800 135.378,258.800 134.600 C 258.800 133.830,258.620 133.200,258.400 133.200 C 258.180 133.200,258.000 132.761,258.000 132.224 C 258.000 131.687,257.820 131.136,257.600 131.000 C 257.380 130.864,257.200 130.133,257.200 129.376 C 257.200 128.619,257.020 128.000,256.800 128.000 C 256.580 128.000,256.400 127.381,256.400 126.624 C 256.400 125.867,256.220 125.136,256.000 125.000 C 255.780 124.864,255.600 124.324,255.600 123.800 C 255.600 123.276,255.402 122.725,255.160 122.575 C 254.909 122.420,254.819 121.806,254.950 121.151 C 255.077 120.513,255.006 120.000,254.790 120.000 C 254.576 120.000,254.400 119.280,254.400 118.400 C 254.400 117.520,254.220 116.800,254.000 116.800 C 253.780 116.800,253.600 116.361,253.600 115.824 C 253.600 115.287,253.420 114.736,253.200 114.600 C 252.980 114.464,252.800 113.913,252.800 113.376 C 252.800 112.839,252.620 112.400,252.400 112.400 C 252.180 112.400,252.000 111.961,252.000 111.424 C 252.000 110.887,251.820 110.336,251.600 110.200 C 251.380 110.064,251.200 109.524,251.200 109.000 C 251.200 108.476,251.013 107.931,250.784 107.790 C 250.555 107.648,250.477 107.188,250.611 106.766 C 250.747 106.338,250.666 106.000,250.427 106.000 C 250.192 106.000,250.000 105.640,250.000 105.200 C 250.000 104.760,249.820 104.400,249.600 104.400 C 249.380 104.400,249.200 103.961,249.200 103.424 C 249.200 102.887,249.020 102.336,248.800 102.200 C 248.580 102.064,248.400 101.524,248.400 101.000 C 248.400 100.476,248.220 99.936,248.000 99.800 C 247.780 99.664,247.600 99.113,247.600 98.576 C 247.600 98.039,247.465 97.599,247.300 97.597 C 246.899 97.593,246.000 95.619,246.000 94.744 C 246.000 94.361,245.808 93.928,245.573 93.783 C 245.338 93.638,245.237 93.280,245.349 92.989 C 245.576 92.398,244.769 90.408,244.300 90.403 C 244.135 90.401,244.000 90.040,244.000 89.600 C 244.000 89.160,243.820 88.800,243.600 88.800 C 243.380 88.800,243.200 88.457,243.200 88.038 C 243.200 87.312,241.680 84.023,241.149 83.600 C 241.011 83.490,240.770 82.635,240.614 81.700 C 240.458 80.765,240.211 79.999,240.065 79.999 C 239.919 79.998,239.350 79.008,238.800 77.800 C 238.250 76.592,237.665 75.602,237.500 75.601 C 237.335 75.601,237.200 75.240,237.200 74.800 C 237.200 74.360,237.020 74.000,236.800 74.000 C 236.580 74.000,236.400 73.640,236.400 73.200 C 236.400 72.760,236.199 72.400,235.953 72.400 C 235.693 72.400,235.586 71.984,235.698 71.400 C 235.803 70.850,235.734 70.400,235.545 70.400 C 235.355 70.400,235.200 70.040,235.200 69.600 C 235.200 69.160,235.054 68.800,234.875 68.800 C 234.696 68.800,234.302 68.170,234.000 67.400 C 233.698 66.630,233.304 66.000,233.125 66.000 C 232.946 66.000,232.800 65.640,232.800 65.200 C 232.800 64.760,232.620 64.400,232.400 64.400 C 232.180 64.400,232.000 64.083,232.000 63.696 C 232.000 63.309,231.640 62.768,231.200 62.493 C 230.760 62.218,230.400 61.783,230.400 61.526 C 230.400 60.895,227.508 55.034,227.114 54.867 C 226.941 54.793,226.800 54.395,226.800 53.981 C 226.800 53.567,226.426 53.028,225.969 52.783 C 225.493 52.529,225.231 52.095,225.356 51.769 C 225.477 51.456,225.401 51.200,225.187 51.200 C 224.974 51.200,224.800 50.859,224.800 50.443 C 224.800 50.026,224.545 49.588,224.232 49.468 C 223.920 49.348,223.112 48.093,222.437 46.678 C 221.762 45.263,220.940 43.882,220.609 43.608 C 220.279 43.334,220.107 42.950,220.228 42.755 C 220.349 42.560,220.257 42.400,220.024 42.400 C 219.791 42.400,219.600 42.080,219.600 41.688 C 219.600 41.297,219.240 40.717,218.800 40.400 C 218.360 40.083,218.000 39.522,218.000 39.154 C 218.000 38.787,217.727 38.381,217.394 38.253 C 217.061 38.125,216.603 37.611,216.377 37.110 C 215.732 35.682,214.987 34.469,214.264 33.671 C 213.899 33.267,213.600 32.728,213.600 32.472 C 213.600 32.216,213.240 31.782,212.800 31.507 C 212.360 31.232,212.000 30.700,212.000 30.324 C 212.000 29.948,211.745 29.496,211.432 29.320 C 211.120 29.144,210.805 28.730,210.732 28.400 C 210.660 28.070,210.285 27.509,209.900 27.153 C 209.515 26.797,209.200 26.256,209.200 25.949 C 209.200 25.643,208.840 25.168,208.400 24.893 C 207.960 24.618,207.600 24.156,207.600 23.866 C 207.600 23.577,207.150 22.917,206.600 22.400 C 206.050 21.883,205.600 21.250,205.600 20.992 C 205.600 20.735,205.240 20.198,204.800 19.800 C 204.360 19.402,204.000 18.862,204.000 18.600 C 204.000 18.338,203.640 17.798,203.200 17.400 C 202.760 17.002,202.400 16.465,202.400 16.208 C 202.400 15.950,201.950 15.317,201.400 14.800 C 200.850 14.283,200.400 13.622,200.400 13.330 C 200.400 13.039,200.040 12.800,199.600 12.800 C 199.160 12.800,198.800 12.620,198.800 12.400 C 198.800 12.180,198.524 12.000,198.187 12.000 C 197.851 12.000,197.471 11.730,197.345 11.400 C 197.218 11.070,196.999 10.824,196.857 10.853 C 196.716 10.882,196.060 11.033,195.400 11.190 M199.039 99.358 C 199.191 99.754,199.696 99.857,200.775 99.713 C 201.677 99.592,202.408 99.690,202.572 99.954 C 202.723 100.199,203.287 100.400,203.824 100.400 C 204.361 100.400,204.800 100.580,204.800 100.800 C 204.800 101.020,205.340 101.200,206.000 101.200 C 206.660 101.200,207.200 101.380,207.200 101.600 C 207.200 101.820,207.560 102.000,208.000 102.000 C 208.440 102.000,208.800 102.180,208.800 102.400 C 208.800 102.620,208.935 102.771,209.100 102.735 C 209.789 102.587,211.490 103.617,212.778 104.961 C 213.537 105.753,214.340 106.400,214.563 106.400 C 215.121 106.400,218.400 109.660,218.400 110.214 C 218.400 110.459,218.850 111.083,219.400 111.600 C 219.950 112.117,220.400 112.778,220.400 113.070 C 220.400 113.361,220.580 113.600,220.800 113.600 C 221.020 113.600,221.200 113.894,221.200 114.253 C 221.200 114.612,221.582 115.238,222.049 115.643 C 222.596 116.117,222.823 116.668,222.687 117.190 C 222.570 117.635,222.625 118.000,222.808 118.000 C 223.415 118.000,224.306 120.311,224.105 121.364 C 223.980 122.017,224.086 122.400,224.390 122.400 C 224.727 122.400,224.832 123.070,224.737 124.596 C 224.644 126.092,224.760 126.853,225.100 126.984 C 225.719 127.221,225.816 134.000,225.200 134.000 C 224.980 134.000,224.800 134.810,224.800 135.800 C 224.800 136.805,224.612 137.600,224.374 137.600 C 224.140 137.600,224.005 138.095,224.074 138.700 C 224.213 139.915,221.514 145.769,220.318 146.847 C 219.923 147.203,219.600 147.713,219.600 147.981 C 219.600 148.249,218.970 149.026,218.200 149.708 C 217.430 150.389,216.800 151.274,216.800 151.674 C 216.800 152.127,216.507 152.400,216.020 152.400 C 215.592 152.400,214.760 153.030,214.173 153.800 C 213.586 154.570,212.833 155.200,212.499 155.200 C 212.166 155.200,211.603 155.519,211.247 155.909 C 210.320 156.925,205.346 159.337,204.832 159.020 C 204.594 158.873,204.400 158.943,204.400 159.176 C 204.400 159.409,203.680 159.600,202.800 159.600 C 201.920 159.600,201.200 159.771,201.200 159.981 C 201.200 160.207,198.438 160.364,194.400 160.368 C 190.288 160.371,187.600 160.220,187.600 159.986 C 187.600 159.774,186.981 159.600,186.224 159.600 C 185.467 159.600,184.734 159.417,184.596 159.193 C 184.458 158.970,184.173 158.893,183.963 159.023 C 183.522 159.295,181.200 158.354,181.200 157.902 C 181.200 157.736,180.840 157.600,180.400 157.600 C 179.960 157.600,179.600 157.420,179.600 157.200 C 179.600 156.980,179.283 156.800,178.896 156.800 C 178.509 156.800,177.968 156.440,177.693 156.000 C 177.418 155.560,176.960 155.200,176.675 155.200 C 176.390 155.200,175.546 154.570,174.800 153.800 C 174.054 153.030,173.204 152.400,172.912 152.400 C 172.619 152.400,172.223 151.995,172.030 151.500 C 171.838 151.005,171.122 150.071,170.440 149.425 C 169.758 148.779,169.200 148.024,169.200 147.748 C 169.200 147.471,168.864 147.010,168.454 146.723 C 168.043 146.435,167.579 145.615,167.422 144.900 C 167.265 144.185,166.971 143.600,166.768 143.600 C 166.566 143.600,166.400 143.240,166.400 142.800 C 166.400 142.360,166.220 142.000,166.000 142.000 C 165.780 142.000,165.600 141.561,165.600 141.024 C 165.600 140.487,165.420 139.936,165.200 139.800 C 164.980 139.664,164.800 139.113,164.800 138.576 C 164.800 138.039,164.603 137.600,164.363 137.600 C 164.083 137.600,163.975 136.809,164.063 135.404 C 164.156 133.908,164.040 133.147,163.700 133.016 C 163.018 132.755,162.999 126.534,163.680 126.307 C 163.990 126.203,164.122 125.425,164.053 124.114 C 163.993 122.984,164.135 121.964,164.372 121.817 C 164.608 121.672,164.800 121.113,164.800 120.576 C 164.800 120.039,164.980 119.600,165.200 119.600 C 165.420 119.600,165.600 119.245,165.600 118.812 C 165.600 118.379,165.958 117.388,166.395 116.609 C 166.832 115.831,167.214 115.060,167.243 114.897 C 167.401 114.012,167.993 112.904,168.558 112.435 C 168.911 112.142,169.200 111.736,169.200 111.534 C 169.200 111.027,175.392 104.800,175.896 104.800 C 176.119 104.800,176.542 104.511,176.835 104.158 C 177.267 103.637,179.108 102.675,179.497 102.767 C 179.550 102.779,180.231 102.432,181.009 101.995 C 181.788 101.558,182.779 101.200,183.212 101.200 C 183.645 101.200,184.000 101.020,184.000 100.800 C 184.000 100.580,184.439 100.400,184.976 100.400 C 185.513 100.400,186.077 100.199,186.229 99.954 C 186.396 99.683,187.192 99.585,188.252 99.705 C 189.565 99.853,190.000 99.765,190.000 99.351 C 190.000 98.542,198.729 98.549,199.039 99.358 M109.896 189.227 C 108.743 190.463,107.580 191.548,107.310 191.638 C 106.536 191.895,94.001 204.398,93.989 204.926 C 93.983 205.186,93.173 206.104,92.189 206.965 C 91.205 207.826,90.400 208.818,90.400 209.169 C 90.400 209.520,90.040 210.032,89.600 210.307 C 89.160 210.582,88.800 211.047,88.800 211.341 C 88.800 211.635,88.444 212.198,88.009 212.591 C 87.575 212.985,87.300 213.439,87.400 213.600 C 87.500 213.761,87.225 214.215,86.791 214.609 C 86.356 215.002,86.000 215.538,86.000 215.800 C 86.000 216.062,85.640 216.602,85.200 217.000 C 84.760 217.398,84.400 217.966,84.400 218.262 C 84.400 218.558,84.220 218.800,84.000 218.800 C 83.780 218.800,83.600 219.120,83.600 219.512 C 83.600 219.903,83.250 220.476,82.821 220.785 C 82.393 221.093,82.146 221.513,82.273 221.718 C 82.399 221.922,82.341 222.204,82.143 222.345 C 81.946 222.485,81.158 223.860,80.394 225.400 C 79.629 226.940,78.868 228.260,78.702 228.333 C 78.536 228.407,78.400 228.812,78.400 229.233 C 78.400 229.655,78.220 230.000,78.000 230.000 C 77.780 230.000,77.600 230.360,77.600 230.800 C 77.600 231.240,77.426 231.600,77.213 231.600 C 76.999 231.600,76.920 231.846,77.035 232.148 C 77.151 232.449,76.875 233.354,76.423 234.160 C 75.970 234.965,75.600 235.853,75.600 236.132 C 75.600 236.859,74.656 238.793,74.300 238.797 C 74.135 238.799,74.000 239.239,74.000 239.776 C 74.000 240.313,73.820 240.864,73.600 241.000 C 73.380 241.136,73.200 241.687,73.200 242.224 C 73.200 242.761,73.020 243.200,72.800 243.200 C 72.580 243.200,72.400 243.740,72.400 244.400 C 72.400 245.060,72.225 245.600,72.010 245.600 C 71.790 245.600,71.724 246.122,71.859 246.794 C 72.025 247.626,71.926 248.054,71.530 248.205 C 71.149 248.352,71.015 248.862,71.120 249.764 C 71.206 250.502,71.079 251.227,70.838 251.376 C 70.597 251.525,70.400 252.526,70.400 253.600 C 70.400 254.674,70.220 255.664,70.000 255.800 C 69.780 255.936,69.600 256.847,69.600 257.824 C 69.600 258.801,69.420 259.600,69.200 259.600 C 68.980 259.600,68.800 260.590,68.800 261.800 C 68.800 263.171,68.629 264.000,68.347 264.000 C 68.049 264.000,67.969 264.554,68.113 265.626 C 68.277 266.847,68.182 267.309,67.731 267.482 C 67.283 267.654,67.197 268.061,67.392 269.096 C 67.570 270.048,67.469 270.686,67.069 271.140 C 66.628 271.641,66.549 272.387,66.743 274.229 C 67.269 279.209,70.464 280.597,75.411 277.994 C 76.672 277.331,77.905 276.811,78.151 276.838 C 78.900 276.920,80.400 276.330,80.400 275.953 C 80.400 275.759,80.925 275.600,81.567 275.600 C 82.208 275.600,82.793 275.464,82.867 275.298 C 83.108 274.752,88.327 272.308,88.726 272.554 C 88.941 272.687,89.224 272.515,89.355 272.172 C 89.487 271.830,89.796 271.674,90.042 271.826 C 90.288 271.978,90.604 271.944,90.745 271.751 C 91.120 271.235,92.708 270.400,93.315 270.400 C 94.055 270.400,95.993 269.461,95.997 269.100 C 95.999 268.935,96.329 268.800,96.732 268.800 C 97.135 268.800,98.350 268.351,99.432 267.802 C 100.514 267.253,101.679 266.803,102.020 266.802 C 102.837 266.799,104.793 265.882,104.797 265.500 C 104.799 265.335,105.160 265.200,105.600 265.200 C 106.040 265.200,106.400 265.020,106.400 264.800 C 106.400 264.580,106.742 264.400,107.159 264.400 C 107.577 264.400,108.945 263.860,110.199 263.201 C 111.453 262.541,112.634 262.097,112.823 262.214 C 113.246 262.475,114.642 261.700,115.878 260.518 C 116.850 259.589,117.281 255.200,116.400 255.200 C 116.165 255.200,116.000 253.800,116.000 251.800 C 116.000 249.616,115.844 248.400,115.565 248.400 C 115.269 248.400,115.173 246.988,115.265 243.999 C 115.348 241.298,115.246 239.548,115.000 239.466 C 114.423 239.275,114.394 201.177,114.971 200.956 C 115.255 200.847,115.352 199.109,115.259 195.799 C 115.138 191.513,115.208 190.772,115.756 190.561 C 116.217 190.385,116.324 190.023,116.142 189.258 C 115.411 186.190,112.740 186.177,109.896 189.227 M275.696 187.700 C 275.002 188.565,274.892 191.150,275.539 191.398 C 276.019 191.582,276.080 192.622,275.904 197.585 C 275.732 202.440,275.796 203.589,276.246 203.762 C 276.703 203.938,276.800 206.364,276.800 217.600 C 276.800 228.836,276.703 231.262,276.246 231.438 C 275.795 231.611,275.732 232.766,275.906 237.665 C 276.070 242.294,276.002 243.752,275.609 243.995 C 275.239 244.223,275.119 245.480,275.172 248.555 C 275.219 251.313,275.097 252.800,274.822 252.800 C 274.559 252.800,274.400 254.081,274.400 256.200 C 274.400 258.200,274.235 259.600,274.000 259.600 C 273.780 259.600,273.600 259.793,273.600 260.029 C 273.600 260.792,274.717 261.600,275.771 261.600 C 276.337 261.600,276.800 261.759,276.800 261.953 C 276.800 262.249,277.804 262.732,278.867 262.946 C 279.013 262.976,279.268 263.135,279.433 263.300 C 279.598 263.465,280.058 263.600,280.455 263.600 C 280.851 263.600,281.817 263.960,282.600 264.400 C 283.383 264.840,284.379 265.200,284.812 265.200 C 285.245 265.200,285.600 265.380,285.600 265.600 C 285.600 265.820,285.960 266.000,286.400 266.000 C 286.840 266.000,287.200 266.159,287.200 266.353 C 287.200 266.702,288.436 267.213,289.600 267.345 C 290.521 267.449,293.600 268.950,293.600 269.294 C 293.600 269.462,294.140 269.600,294.800 269.600 C 295.460 269.600,296.000 269.746,296.000 269.925 C 296.000 270.104,296.630 270.498,297.400 270.800 C 298.170 271.102,298.800 271.517,298.800 271.721 C 298.800 271.926,299.160 271.999,299.600 271.884 C 300.433 271.666,302.391 272.378,302.397 272.900 C 302.399 273.065,302.760 273.200,303.200 273.200 C 303.640 273.200,304.000 273.380,304.000 273.600 C 304.000 273.820,304.343 274.000,304.762 274.000 C 305.578 274.000,308.912 275.601,309.133 276.100 C 309.207 276.265,309.612 276.400,310.033 276.400 C 310.455 276.400,310.800 276.599,310.800 276.843 C 310.800 277.086,311.073 277.181,311.406 277.053 C 311.739 276.925,312.645 277.176,313.418 277.610 C 314.192 278.045,315.168 278.400,315.589 278.400 C 316.009 278.400,316.464 278.580,316.600 278.800 C 316.736 279.020,317.287 279.200,317.824 279.200 C 318.482 279.200,318.804 279.428,318.812 279.900 C 318.824 280.567,318.844 280.567,319.232 279.900 C 319.456 279.515,320.009 279.200,320.459 279.200 C 321.366 279.200,323.600 277.036,323.600 276.158 C 323.600 275.851,323.761 275.600,323.958 275.600 C 324.600 275.600,324.686 272.376,324.054 272.022 C 323.641 271.791,323.542 271.247,323.699 270.078 C 323.854 268.922,323.761 268.394,323.375 268.246 C 322.972 268.091,322.895 267.520,323.072 266.019 C 323.236 264.635,323.168 264.000,322.856 264.000 C 322.583 264.000,322.400 263.286,322.400 262.224 C 322.400 261.247,322.220 260.336,322.000 260.200 C 321.780 260.064,321.600 259.074,321.600 258.000 C 321.600 256.926,321.420 255.936,321.200 255.800 C 320.980 255.664,320.800 254.933,320.800 254.176 C 320.800 253.419,320.620 252.800,320.400 252.800 C 320.180 252.800,320.000 252.181,320.000 251.424 C 320.000 250.667,319.820 249.936,319.600 249.800 C 319.380 249.664,319.200 248.933,319.200 248.176 C 319.200 247.419,319.000 246.800,318.755 246.800 C 318.467 246.800,318.400 246.325,318.565 245.446 C 318.750 244.459,318.662 244.033,318.240 243.871 C 317.897 243.739,317.745 243.332,317.866 242.870 C 317.978 242.441,317.874 241.969,317.635 241.822 C 317.396 241.674,317.200 241.113,317.200 240.576 C 317.200 240.039,317.020 239.600,316.800 239.600 C 316.580 239.600,316.400 239.060,316.400 238.400 C 316.400 237.740,316.265 237.199,316.100 237.197 C 315.744 237.193,314.800 235.259,314.800 234.532 C 314.800 234.253,314.453 233.406,314.028 232.650 C 313.604 231.895,313.364 231.169,313.495 231.038 C 313.626 230.907,313.523 230.800,313.267 230.800 C 313.010 230.800,312.800 230.440,312.800 230.000 C 312.800 229.560,312.620 229.200,312.400 229.200 C 312.180 229.200,312.000 228.868,312.000 228.461 C 312.000 227.434,310.827 225.185,310.156 224.928 C 309.850 224.810,309.600 224.374,309.600 223.957 C 309.600 223.541,309.428 223.200,309.218 223.200 C 309.008 223.200,308.718 222.570,308.574 221.800 C 308.429 221.030,308.151 220.400,307.955 220.400 C 307.760 220.400,307.600 220.083,307.600 219.696 C 307.600 219.309,307.240 218.768,306.800 218.493 C 306.360 218.218,306.000 217.747,306.000 217.446 C 306.000 217.144,305.711 216.658,305.358 216.365 C 304.722 215.837,303.820 214.050,303.926 213.528 C 303.957 213.378,303.446 212.805,302.791 212.254 C 302.136 211.703,301.600 211.042,301.600 210.786 C 301.600 210.530,301.060 209.817,300.400 209.200 C 299.740 208.583,299.200 207.824,299.200 207.511 C 299.200 207.199,298.570 206.442,297.800 205.828 C 297.030 205.214,296.400 204.478,296.400 204.193 C 296.400 203.547,285.225 192.400,284.577 192.400 C 284.317 192.400,283.156 191.335,281.997 190.034 C 280.750 188.633,279.667 187.753,279.345 187.877 C 279.045 187.992,278.800 187.886,278.800 187.643 C 278.800 187.034,276.193 187.082,275.696 187.700 M120.799 318.900 C 120.800 319.065,120.440 319.200,120.000 319.200 C 119.527 319.200,119.200 319.467,119.200 319.853 C 119.200 320.212,118.876 320.797,118.480 321.153 C 117.805 321.759,116.249 324.619,116.215 325.315 C 116.207 325.488,116.020 325.758,115.800 325.915 C 115.580 326.072,115.380 326.380,115.357 326.600 C 115.254 327.539,114.680 328.800,114.353 328.800 C 114.159 328.800,114.000 329.160,114.000 329.600 C 114.000 330.040,113.820 330.400,113.600 330.400 C 113.380 330.400,113.200 330.760,113.200 331.200 C 113.200 331.640,113.062 332.000,112.894 332.000 C 112.607 332.000,111.084 335.029,111.026 335.715 C 111.012 335.888,110.820 336.158,110.600 336.315 C 110.380 336.472,110.180 336.780,110.157 337.000 C 110.054 337.939,109.480 339.200,109.153 339.200 C 108.959 339.200,108.800 339.560,108.800 340.000 C 108.800 340.440,108.620 340.800,108.400 340.800 C 108.180 340.800,108.000 341.160,108.000 341.600 C 108.000 342.040,107.841 342.400,107.647 342.400 C 107.343 342.400,106.828 343.496,106.654 344.515 C 106.624 344.688,106.420 344.958,106.200 345.115 C 105.980 345.272,105.780 345.580,105.757 345.800 C 105.654 346.739,105.080 348.000,104.753 348.000 C 104.559 348.000,104.400 348.360,104.400 348.800 C 104.400 349.240,104.220 349.600,104.000 349.600 C 103.780 349.600,103.600 349.960,103.600 350.400 C 103.600 350.840,103.462 351.200,103.294 351.200 C 103.007 351.200,101.484 354.229,101.426 354.915 C 101.412 355.088,101.220 355.358,101.000 355.515 C 100.780 355.672,100.580 355.980,100.557 356.200 C 100.454 357.139,99.880 358.400,99.553 358.400 C 99.359 358.400,99.200 358.745,99.200 359.167 C 99.200 359.588,99.058 359.993,98.885 360.067 C 98.712 360.140,98.067 361.280,97.451 362.600 C 95.219 367.387,94.595 368.602,94.300 368.733 C 94.135 368.807,94.000 369.212,94.000 369.633 C 94.000 370.055,93.862 370.400,93.694 370.400 C 93.407 370.400,91.884 373.429,91.826 374.115 C 91.812 374.288,91.620 374.558,91.400 374.715 C 91.180 374.872,90.980 375.180,90.957 375.400 C 90.854 376.339,90.280 377.600,89.953 377.600 C 89.759 377.600,89.600 377.960,89.600 378.400 C 89.600 378.840,89.463 379.200,89.295 379.200 C 89.127 379.200,88.812 379.605,88.595 380.100 L 88.200 381.000 73.100 381.105 C 63.493 381.171,58.000 381.353,58.000 381.605 C 58.000 381.822,57.722 382.000,57.382 382.000 C 56.421 382.000,54.800 383.854,54.800 384.952 C 54.800 385.558,54.529 386.012,54.100 386.124 C 53.433 386.298,53.433 386.309,54.100 386.354 C 54.553 386.384,54.800 386.729,54.800 387.330 C 54.800 388.256,55.790 389.347,57.495 390.300 C 58.636 390.938,92.400 391.035,92.400 390.400 C 92.400 390.180,92.749 390.000,93.176 390.000 C 93.934 390.000,94.545 389.404,94.612 388.600 C 94.658 388.056,95.284 386.646,95.590 386.400 C 95.906 386.145,98.177 381.504,98.190 381.085 C 98.196 380.912,98.380 380.642,98.600 380.485 C 98.820 380.328,99.020 380.020,99.043 379.800 C 99.146 378.861,99.720 377.600,100.047 377.600 C 100.241 377.600,100.400 377.255,100.400 376.833 C 100.400 376.412,100.542 376.007,100.715 375.933 C 101.046 375.793,103.374 371.227,103.390 370.685 C 103.396 370.512,103.580 370.242,103.800 370.085 C 104.020 369.928,104.220 369.620,104.243 369.400 C 104.346 368.461,104.920 367.200,105.247 367.200 C 105.441 367.200,105.600 366.840,105.600 366.400 C 105.600 365.960,105.735 365.599,105.900 365.599 C 106.065 365.598,106.650 364.608,107.200 363.400 C 107.750 362.192,108.346 361.202,108.524 361.201 C 108.702 361.201,108.752 361.045,108.635 360.856 C 108.382 360.448,109.268 358.408,109.700 358.403 C 109.865 358.401,110.000 358.055,110.000 357.633 C 110.000 357.212,110.142 356.807,110.315 356.733 C 110.581 356.621,112.909 352.198,113.017 351.600 C 113.149 350.870,114.645 348.000,114.894 348.000 C 115.062 348.000,115.200 347.640,115.200 347.200 C 115.200 346.760,115.335 346.399,115.500 346.399 C 115.665 346.398,116.250 345.408,116.800 344.200 C 117.350 342.992,117.943 342.002,118.118 342.001 C 118.292 342.001,118.408 341.775,118.374 341.500 C 118.279 340.718,118.855 339.200,119.247 339.200 C 119.441 339.200,119.600 338.917,119.600 338.571 C 119.600 337.965,120.502 336.800,120.971 336.800 C 121.097 336.800,121.200 337.160,121.200 337.600 C 121.200 338.040,121.380 338.400,121.600 338.400 C 121.820 338.400,122.000 338.850,122.000 339.400 C 122.000 339.950,122.180 340.400,122.400 340.400 C 122.620 340.400,122.800 341.120,122.800 342.000 C 122.800 342.880,122.980 343.600,123.200 343.600 C 123.420 343.600,123.600 344.230,123.600 345.000 C 123.600 345.770,123.780 346.400,124.000 346.400 C 124.220 346.400,124.400 347.019,124.400 347.776 C 124.400 348.533,124.580 349.264,124.800 349.400 C 125.020 349.536,125.200 350.256,125.200 351.000 C 125.200 351.744,125.398 352.475,125.640 352.625 C 125.886 352.777,125.982 353.390,125.858 354.012 C 125.701 354.797,125.817 355.198,126.249 355.363 C 126.697 355.535,126.794 355.915,126.608 356.762 C 126.462 357.428,126.534 358.035,126.777 358.186 C 127.009 358.329,127.200 359.067,127.200 359.824 C 127.200 360.581,127.380 361.200,127.600 361.200 C 127.820 361.200,128.000 361.819,128.000 362.576 C 128.000 363.333,128.180 364.064,128.400 364.200 C 128.620 364.336,128.800 365.067,128.800 365.824 C 128.800 366.581,128.980 367.200,129.200 367.200 C 129.420 367.200,129.600 367.819,129.600 368.576 C 129.600 369.333,129.780 370.064,130.000 370.200 C 130.220 370.336,130.400 371.067,130.400 371.824 C 130.400 372.581,130.604 373.200,130.852 373.200 C 131.146 373.200,131.225 373.691,131.077 374.600 C 130.953 375.370,131.019 376.000,131.225 376.000 C 131.431 376.000,131.600 376.630,131.600 377.400 C 131.600 378.170,131.780 378.800,132.000 378.800 C 132.220 378.800,132.400 379.700,132.400 380.800 C 132.400 381.900,132.580 382.800,132.800 382.800 C 133.020 382.800,133.200 383.250,133.200 383.800 C 133.200 384.350,133.398 384.800,133.640 384.800 C 133.916 384.800,134.027 385.469,133.938 386.595 C 133.840 387.827,133.962 388.453,134.328 388.594 C 134.644 388.715,134.812 389.265,134.740 389.949 C 134.673 390.582,134.843 391.370,135.116 391.699 C 135.390 392.029,135.510 392.568,135.384 392.898 C 135.251 393.244,135.431 393.603,135.809 393.748 C 136.298 393.936,136.399 394.293,136.208 395.162 C 136.062 395.828,136.134 396.435,136.377 396.586 C 136.609 396.729,136.800 397.467,136.800 398.224 C 136.800 398.981,136.980 399.600,137.200 399.600 C 137.420 399.600,137.600 400.219,137.600 400.976 C 137.600 401.733,137.780 402.464,138.000 402.600 C 138.220 402.736,138.400 403.467,138.400 404.224 C 138.400 404.981,138.580 405.600,138.800 405.600 C 139.020 405.600,139.200 406.219,139.200 406.976 C 139.200 407.733,139.380 408.464,139.600 408.600 C 139.820 408.736,140.000 409.467,140.000 410.224 C 140.000 410.981,140.204 411.600,140.452 411.600 C 140.744 411.600,140.826 412.086,140.683 412.969 C 140.526 413.935,140.626 414.401,141.023 414.554 C 141.417 414.705,141.513 415.135,141.343 415.985 C 141.188 416.762,141.262 417.200,141.550 417.200 C 141.808 417.200,142.000 417.881,142.000 418.800 C 142.000 419.680,142.180 420.400,142.400 420.400 C 142.620 420.400,142.800 421.030,142.800 421.800 C 142.800 422.570,142.980 423.200,143.200 423.200 C 143.420 423.200,143.600 423.920,143.600 424.800 C 143.600 425.680,143.780 426.400,144.000 426.400 C 144.220 426.400,144.400 427.030,144.400 427.800 C 144.400 428.570,144.600 429.200,144.844 429.200 C 145.115 429.200,145.224 429.741,145.125 430.589 C 145.022 431.475,145.148 432.048,145.475 432.173 C 145.808 432.301,145.905 432.775,145.753 433.536 C 145.619 434.205,145.707 434.819,145.960 434.975 C 146.202 435.125,146.400 435.867,146.400 436.624 C 146.400 437.381,146.580 438.000,146.800 438.000 C 147.020 438.000,147.200 438.619,147.200 439.376 C 147.200 440.133,147.380 440.864,147.600 441.000 C 147.820 441.136,148.000 441.867,148.000 442.624 C 148.000 443.381,148.180 444.000,148.400 444.000 C 148.620 444.000,148.800 444.619,148.800 445.376 C 148.800 446.133,148.980 446.864,149.200 447.000 C 149.420 447.136,149.600 447.867,149.600 448.624 C 149.600 449.381,149.801 450.000,150.047 450.000 C 150.304 450.000,150.400 450.357,150.273 450.844 C 149.987 451.937,151.604 453.600,152.952 453.600 C 153.558 453.600,154.012 453.871,154.124 454.300 C 154.298 454.967,154.309 454.967,154.354 454.300 C 154.386 453.818,154.742 453.596,155.500 453.587 C 156.666 453.574,157.450 452.748,158.429 450.500 C 158.740 449.785,159.131 449.200,159.298 449.200 C 159.464 449.200,159.600 448.840,159.600 448.400 C 159.600 447.960,159.736 447.600,159.902 447.600 C 160.069 447.600,160.451 447.015,160.752 446.300 C 161.950 443.452,163.387 440.593,163.685 440.467 C 163.858 440.393,164.000 439.988,164.000 439.567 C 164.000 439.145,164.180 438.800,164.400 438.800 C 164.620 438.800,164.800 438.440,164.800 438.000 C 164.800 437.560,164.980 437.200,165.200 437.200 C 165.420 437.200,165.600 436.940,165.600 436.623 C 165.600 436.305,165.984 435.777,166.453 435.448 C 166.966 435.088,167.211 434.606,167.068 434.234 C 166.839 433.637,168.290 430.338,168.900 430.067 C 169.065 429.993,169.200 429.588,169.200 429.167 C 169.200 428.745,169.336 428.400,169.502 428.400 C 169.669 428.400,170.051 427.815,170.352 427.100 C 171.550 424.252,172.987 421.393,173.285 421.267 C 173.458 421.193,173.600 420.788,173.600 420.367 C 173.600 419.945,173.780 419.600,174.000 419.600 C 174.220 419.600,174.400 419.240,174.400 418.800 C 174.400 418.360,174.536 418.000,174.702 418.000 C 174.869 418.000,175.251 417.415,175.552 416.700 C 176.750 413.852,178.187 410.993,178.485 410.867 C 178.658 410.793,178.800 410.403,178.800 410.000 C 178.800 409.597,178.942 409.207,179.115 409.133 C 179.413 409.007,180.850 406.148,182.048 403.300 C 182.349 402.585,182.731 402.000,182.898 402.000 C 183.064 402.000,183.200 401.640,183.200 401.200 C 183.200 400.760,183.380 400.400,183.600 400.400 C 183.820 400.400,184.000 400.040,184.000 399.600 C 184.000 399.160,184.136 398.800,184.302 398.800 C 184.469 398.800,184.851 398.215,185.152 397.500 C 186.322 394.718,187.795 391.777,188.258 391.300 C 188.629 390.917,192.274 390.800,203.771 390.800 C 213.524 390.800,218.800 390.660,218.800 390.400 C 218.800 390.180,219.039 390.000,219.330 390.000 C 219.974 390.000,221.600 388.334,221.600 387.674 C 221.600 387.413,221.780 387.200,222.000 387.200 C 222.220 387.200,222.400 386.855,222.400 386.433 C 222.400 386.012,222.542 385.607,222.715 385.533 C 222.981 385.421,225.309 380.998,225.417 380.400 C 225.549 379.670,227.045 376.800,227.294 376.800 C 227.462 376.800,227.600 376.455,227.600 376.033 C 227.600 375.612,227.742 375.207,227.915 375.133 C 228.213 375.007,229.650 372.148,230.848 369.300 C 231.149 368.585,231.531 368.000,231.698 368.000 C 231.864 368.000,232.000 367.640,232.000 367.200 C 232.000 366.760,232.180 366.400,232.400 366.400 C 232.620 366.400,232.800 366.040,232.800 365.600 C 232.800 365.160,232.936 364.800,233.102 364.800 C 233.269 364.800,233.651 364.215,233.952 363.500 C 235.150 360.652,236.587 357.793,236.885 357.667 C 237.058 357.593,237.200 357.203,237.200 356.800 C 237.200 356.397,237.342 356.007,237.515 355.933 C 237.813 355.807,239.250 352.948,240.448 350.100 C 240.749 349.385,241.131 348.800,241.298 348.800 C 241.464 348.800,241.600 348.455,241.600 348.033 C 241.600 347.612,241.735 347.207,241.900 347.133 C 242.193 347.003,242.764 345.893,245.057 341.000 C 246.656 337.587,249.210 335.346,248.528 337.955 C 248.419 338.370,248.526 338.831,248.765 338.978 C 249.004 339.126,249.200 339.867,249.200 340.624 C 249.200 341.381,249.380 342.000,249.600 342.000 C 249.820 342.000,250.000 342.619,250.000 343.376 C 250.000 344.133,250.180 344.864,250.400 345.000 C 250.620 345.136,250.800 345.867,250.800 346.624 C 250.800 347.381,250.980 348.000,251.200 348.000 C 251.420 348.000,251.600 348.619,251.600 349.376 C 251.600 350.133,251.797 350.875,252.038 351.024 C 252.280 351.173,252.402 351.807,252.310 352.432 C 252.202 353.171,252.343 353.646,252.715 353.789 C 253.135 353.950,253.218 354.380,253.026 355.404 C 252.862 356.275,252.921 356.800,253.182 356.800 C 253.412 356.800,253.600 357.430,253.600 358.200 C 253.600 358.970,253.780 359.600,254.000 359.600 C 254.220 359.600,254.400 360.320,254.400 361.200 C 254.400 362.080,254.580 362.800,254.800 362.800 C 255.020 362.800,255.200 363.430,255.200 364.200 C 255.200 364.970,255.380 365.600,255.600 365.600 C 255.820 365.600,256.000 366.219,256.000 366.976 C 256.000 367.733,256.180 368.464,256.400 368.600 C 256.620 368.736,256.800 369.456,256.800 370.200 C 256.800 370.944,256.991 371.671,257.223 371.814 C 257.460 371.961,257.539 372.567,257.403 373.187 C 257.228 373.981,257.334 374.366,257.772 374.534 C 258.212 374.703,258.320 375.100,258.153 375.936 C 258.019 376.605,258.107 377.219,258.360 377.375 C 258.602 377.525,258.800 378.267,258.800 379.024 C 258.800 379.781,258.980 380.400,259.200 380.400 C 259.420 380.400,259.600 381.019,259.600 381.776 C 259.600 382.533,259.780 383.264,260.000 383.400 C 260.220 383.536,260.400 384.267,260.400 385.024 C 260.400 385.781,260.580 386.400,260.800 386.400 C 261.020 386.400,261.200 387.019,261.200 387.776 C 261.200 388.533,261.397 389.275,261.638 389.424 C 261.880 389.573,261.998 390.230,261.902 390.884 C 261.787 391.672,261.920 392.148,262.298 392.293 C 262.705 392.449,262.798 392.883,262.625 393.809 C 262.446 394.760,262.542 395.169,262.984 395.338 C 263.419 395.505,263.519 395.907,263.343 396.785 C 263.188 397.562,263.262 398.000,263.550 398.000 C 263.808 398.000,264.000 398.681,264.000 399.600 C 264.000 400.480,264.180 401.200,264.400 401.200 C 264.620 401.200,264.800 401.830,264.800 402.600 C 264.800 403.370,264.980 404.000,265.200 404.000 C 265.420 404.000,265.600 404.619,265.600 405.376 C 265.600 406.133,265.780 406.864,266.000 407.000 C 266.220 407.136,266.400 407.856,266.400 408.600 C 266.400 409.344,266.597 410.075,266.838 410.224 C 267.080 410.373,267.202 411.007,267.110 411.632 C 267.008 412.329,267.145 412.847,267.465 412.969 C 267.809 413.101,267.907 413.567,267.753 414.336 C 267.619 415.005,267.707 415.619,267.960 415.775 C 268.202 415.925,268.400 416.667,268.400 417.424 C 268.400 418.181,268.580 418.800,268.800 418.800 C 269.020 418.800,269.200 419.419,269.200 420.176 C 269.200 420.933,269.380 421.664,269.600 421.800 C 269.820 421.936,270.000 422.667,270.000 423.424 C 270.000 424.181,270.180 424.800,270.400 424.800 C 270.620 424.800,270.800 425.419,270.800 426.176 C 270.800 426.933,270.997 427.675,271.238 427.824 C 271.480 427.973,271.598 428.630,271.502 429.284 C 271.387 430.072,271.520 430.548,271.898 430.693 C 272.305 430.849,272.398 431.283,272.225 432.209 C 272.046 433.160,272.142 433.569,272.584 433.738 C 273.012 433.903,273.119 434.307,272.953 435.136 C 272.819 435.805,272.907 436.419,273.160 436.575 C 273.402 436.725,273.600 437.467,273.600 438.224 C 273.600 438.981,273.780 439.600,274.000 439.600 C 274.220 439.600,274.400 440.219,274.400 440.976 C 274.400 441.733,274.580 442.464,274.800 442.600 C 275.020 442.736,275.200 443.467,275.200 444.224 C 275.200 444.981,275.380 445.600,275.600 445.600 C 275.820 445.600,276.000 446.142,276.000 446.805 C 276.000 447.468,276.165 448.323,276.366 448.705 C 276.568 449.087,277.046 450.116,277.428 450.990 C 278.322 453.035,278.909 453.600,280.142 453.600 C 280.757 453.600,281.212 453.869,281.324 454.300 C 281.498 454.967,281.509 454.967,281.554 454.300 C 281.584 453.836,281.931 453.600,282.582 453.600 C 283.666 453.600,285.530 451.989,285.287 451.261 C 285.203 451.008,285.328 450.800,285.567 450.800 C 285.805 450.800,286.000 450.260,286.000 449.600 C 286.000 448.940,286.180 448.400,286.400 448.400 C 286.620 448.400,286.800 448.040,286.800 447.600 C 286.800 447.160,286.936 446.800,287.102 446.800 C 287.269 446.800,287.651 446.215,287.952 445.500 C 289.150 442.652,290.587 439.793,290.885 439.667 C 291.058 439.593,291.200 439.188,291.200 438.767 C 291.200 438.345,291.380 438.000,291.600 438.000 C 291.820 438.000,292.000 437.758,292.000 437.462 C 292.000 437.166,292.360 436.598,292.800 436.200 C 293.240 435.802,293.600 435.234,293.600 434.938 C 293.600 434.642,293.799 434.400,294.043 434.400 C 294.286 434.400,294.379 434.123,294.250 433.785 C 294.118 433.441,294.264 433.073,294.581 432.952 C 294.894 432.832,295.052 432.479,294.932 432.167 C 294.812 431.855,294.914 431.600,295.157 431.600 C 295.401 431.600,295.600 431.240,295.600 430.800 C 295.600 430.360,295.735 429.999,295.900 429.999 C 296.065 429.998,296.650 429.008,297.200 427.800 C 297.750 426.592,298.335 425.602,298.500 425.601 C 298.665 425.601,298.800 425.240,298.800 424.800 C 298.800 424.360,298.991 424.000,299.224 424.000 C 299.457 424.000,299.552 423.845,299.435 423.656 C 299.182 423.248,300.068 421.208,300.500 421.203 C 300.665 421.201,300.800 420.840,300.800 420.400 C 300.800 419.960,300.935 419.599,301.100 419.599 C 301.265 419.598,301.850 418.608,302.400 417.400 C 302.950 416.192,303.554 415.202,303.743 415.201 C 303.931 415.201,303.979 414.923,303.850 414.585 C 303.718 414.241,303.864 413.873,304.181 413.752 C 304.494 413.632,304.652 413.279,304.532 412.967 C 304.412 412.655,304.514 412.400,304.757 412.400 C 305.001 412.400,305.200 412.040,305.200 411.600 C 305.200 411.160,305.335 410.799,305.500 410.799 C 305.665 410.798,306.250 409.808,306.800 408.600 C 307.350 407.392,307.935 406.402,308.100 406.401 C 308.265 406.401,308.400 406.040,308.400 405.600 C 308.400 405.160,308.588 404.800,308.818 404.800 C 309.047 404.800,309.208 404.575,309.174 404.300 C 309.079 403.518,309.655 402.000,310.047 402.000 C 310.241 402.000,310.400 401.640,310.400 401.200 C 310.400 400.760,310.535 400.399,310.700 400.399 C 310.865 400.398,311.450 399.408,312.000 398.200 C 312.550 396.992,313.135 396.002,313.300 396.001 C 313.465 396.001,313.600 395.640,313.600 395.200 C 313.600 394.760,313.774 394.400,313.987 394.400 C 314.201 394.400,314.271 394.130,314.145 393.800 C 314.018 393.470,314.114 393.200,314.357 393.200 C 314.601 393.200,314.800 392.905,314.800 392.544 C 314.800 390.905,315.542 390.826,331.100 390.813 C 340.758 390.804,346.000 390.659,346.000 390.400 C 346.000 390.180,346.239 390.000,346.530 390.000 C 348.696 390.000,349.756 384.557,347.900 382.970 C 345.813 381.184,345.971 381.199,328.505 381.229 C 310.353 381.261,309.592 381.352,309.272 383.530 C 309.202 384.009,308.977 384.400,308.772 384.400 C 308.567 384.400,308.400 384.760,308.400 385.200 C 308.400 385.640,308.241 386.000,308.047 386.000 C 307.747 386.000,307.561 386.373,307.044 388.000 C 306.760 388.895,304.562 393.028,304.315 393.133 C 304.142 393.207,304.000 393.612,304.000 394.033 C 304.000 394.455,303.864 394.800,303.698 394.800 C 303.531 394.800,303.149 395.385,302.848 396.100 C 301.650 398.948,300.213 401.807,299.915 401.933 C 299.742 402.007,299.600 402.412,299.600 402.833 C 299.600 403.255,299.420 403.600,299.200 403.600 C 298.980 403.600,298.800 403.960,298.800 404.400 C 298.800 404.840,298.641 405.200,298.447 405.200 C 298.147 405.200,297.961 405.573,297.444 407.200 C 297.160 408.095,294.962 412.228,294.715 412.333 C 294.542 412.407,294.400 412.812,294.400 413.233 C 294.400 413.655,294.262 414.000,294.094 414.000 C 293.853 414.000,292.444 416.677,292.200 417.600 C 291.956 418.523,290.547 421.200,290.306 421.200 C 290.138 421.200,290.000 421.560,290.000 422.000 C 290.000 422.440,289.820 422.800,289.600 422.800 C 289.380 422.800,289.200 423.160,289.200 423.600 C 289.200 424.040,289.041 424.400,288.847 424.400 C 288.547 424.400,288.361 424.773,287.844 426.400 C 287.560 427.295,285.362 431.428,285.115 431.533 C 284.942 431.607,284.800 432.012,284.800 432.433 C 284.800 432.855,284.620 433.200,284.400 433.200 C 284.180 433.200,284.000 433.448,284.000 433.751 C 284.000 434.054,283.730 434.526,283.400 434.800 C 282.507 435.541,281.600 434.610,281.600 432.951 C 281.600 432.208,281.420 431.600,281.200 431.600 C 280.980 431.600,280.800 430.981,280.800 430.224 C 280.800 429.467,280.620 428.736,280.400 428.600 C 280.180 428.464,280.000 427.733,280.000 426.976 C 280.000 426.219,279.796 425.600,279.548 425.600 C 279.254 425.600,279.175 425.109,279.323 424.200 C 279.447 423.430,279.381 422.800,279.175 422.800 C 278.969 422.800,278.800 422.170,278.800 421.400 C 278.800 420.630,278.620 420.000,278.400 420.000 C 278.180 420.000,278.000 419.280,278.000 418.400 C 278.000 417.520,277.820 416.800,277.600 416.800 C 277.380 416.800,277.200 416.170,277.200 415.400 C 277.200 414.630,277.020 414.000,276.800 414.000 C 276.580 414.000,276.400 413.381,276.400 412.624 C 276.400 411.867,276.220 411.136,276.000 411.000 C 275.780 410.864,275.600 410.133,275.600 409.376 C 275.600 408.619,275.400 408.000,275.156 408.000 C 274.885 408.000,274.776 407.459,274.875 406.611 C 274.983 405.682,274.855 405.153,274.486 405.012 C 274.106 404.866,274.015 404.442,274.192 403.638 C 274.338 402.972,274.266 402.365,274.023 402.214 C 273.791 402.071,273.600 401.333,273.600 400.576 C 273.600 399.819,273.420 399.200,273.200 399.200 C 272.980 399.200,272.800 398.581,272.800 397.824 C 272.800 397.067,272.620 396.336,272.400 396.200 C 272.180 396.064,272.000 395.333,272.000 394.576 C 272.000 393.819,271.802 393.200,271.560 393.200 C 271.284 393.200,271.173 392.531,271.262 391.405 C 271.356 390.221,271.234 389.545,270.902 389.418 C 270.626 389.312,270.400 388.769,270.400 388.213 C 270.400 387.656,270.200 387.200,269.955 387.200 C 269.653 387.200,269.597 386.617,269.779 385.400 C 269.968 384.138,269.909 383.600,269.581 383.600 C 269.281 383.600,269.171 383.096,269.276 382.200 C 269.389 381.235,269.278 380.800,268.920 380.800 C 268.609 380.800,268.400 380.318,268.400 379.600 C 268.400 378.940,268.220 378.400,268.000 378.400 C 267.780 378.400,267.600 377.770,267.600 377.000 C 267.600 376.230,267.420 375.600,267.200 375.600 C 266.980 375.600,266.800 374.880,266.800 374.000 C 266.800 373.120,266.620 372.400,266.400 372.400 C 266.180 372.400,266.000 371.770,266.000 371.000 C 266.000 370.230,265.800 369.600,265.556 369.600 C 265.285 369.600,265.176 369.059,265.275 368.211 C 265.383 367.282,265.255 366.753,264.886 366.612 C 264.506 366.466,264.415 366.042,264.592 365.238 C 264.738 364.572,264.666 363.965,264.423 363.814 C 264.191 363.671,264.000 362.933,264.000 362.176 C 264.000 361.419,263.820 360.800,263.600 360.800 C 263.380 360.800,263.200 360.181,263.200 359.424 C 263.200 358.667,263.020 357.936,262.800 357.800 C 262.580 357.664,262.400 356.933,262.400 356.176 C 262.400 355.419,262.220 354.800,262.000 354.800 C 261.780 354.800,261.600 354.181,261.600 353.424 C 261.600 352.667,261.420 351.936,261.200 351.800 C 260.980 351.664,260.800 350.933,260.800 350.176 C 260.800 349.419,260.596 348.800,260.348 348.800 C 260.056 348.800,259.974 348.314,260.117 347.431 C 260.274 346.465,260.174 345.999,259.777 345.846 C 259.390 345.698,259.287 345.266,259.447 344.464 C 259.581 343.795,259.493 343.181,259.240 343.025 C 258.998 342.875,258.800 342.133,258.800 341.376 C 258.800 340.619,258.620 340.000,258.400 340.000 C 258.180 340.000,258.000 339.370,258.000 338.600 C 258.000 337.830,257.820 337.200,257.600 337.200 C 257.380 337.200,257.200 336.480,257.200 335.600 C 257.200 334.720,257.020 334.000,256.800 334.000 C 256.580 334.000,256.400 333.381,256.400 332.624 C 256.400 331.867,256.203 331.125,255.962 330.976 C 255.720 330.827,255.598 330.193,255.690 329.568 C 255.799 328.825,255.657 328.354,255.280 328.209 C 254.876 328.054,254.773 327.633,254.938 326.809 C 255.068 326.161,255.000 325.523,254.787 325.392 C 254.574 325.260,254.400 324.533,254.400 323.776 C 254.400 323.019,254.220 322.400,254.000 322.400 C 253.780 322.400,253.600 321.937,253.600 321.371 C 253.600 320.214,252.773 319.200,251.829 319.200 C 251.483 319.200,251.200 319.065,251.201 318.900 C 251.201 318.735,250.346 318.600,249.301 318.600 C 247.300 318.600,245.600 319.694,245.600 320.982 C 245.600 321.322,245.462 321.600,245.294 321.600 C 245.045 321.600,243.549 324.470,243.417 325.200 C 243.309 325.798,240.981 330.221,240.715 330.333 C 240.542 330.407,240.400 330.812,240.400 331.233 C 240.400 331.655,240.241 332.000,240.047 332.000 C 239.852 332.000,239.562 332.405,239.400 332.900 C 239.239 333.395,239.068 333.890,239.020 334.000 C 238.972 334.110,238.730 334.689,238.481 335.287 C 238.233 335.886,237.692 336.585,237.281 336.842 C 236.782 337.154,236.592 337.625,236.713 338.255 C 236.815 338.792,236.700 339.200,236.447 339.200 C 236.201 339.200,236.000 339.560,236.000 340.000 C 236.000 340.440,235.820 340.800,235.600 340.800 C 235.380 340.800,235.200 341.160,235.200 341.600 C 235.200 342.040,235.041 342.400,234.847 342.400 C 234.547 342.400,234.361 342.773,233.844 344.400 C 233.560 345.295,231.362 349.428,231.115 349.533 C 230.942 349.607,230.800 350.012,230.800 350.433 C 230.800 350.855,230.664 351.200,230.498 351.200 C 230.331 351.200,229.950 351.785,229.651 352.500 C 228.481 355.292,226.211 359.807,225.914 359.933 C 225.741 360.007,225.600 360.412,225.600 360.833 C 225.600 361.255,225.441 361.600,225.247 361.600 C 224.947 361.600,224.761 361.973,224.244 363.600 C 223.960 364.495,221.762 368.628,221.515 368.733 C 221.342 368.807,221.200 369.212,221.200 369.633 C 221.200 370.055,221.064 370.400,220.898 370.400 C 220.731 370.400,220.350 370.985,220.051 371.700 C 218.881 374.492,216.611 379.007,216.314 379.133 C 216.141 379.207,216.000 379.592,216.000 379.991 C 216.000 381.180,215.233 381.239,200.127 381.210 C 189.069 381.188,185.408 381.303,184.731 381.691 C 183.335 382.492,182.000 383.905,182.000 384.582 C 182.000 384.922,181.864 385.200,181.698 385.200 C 181.531 385.200,181.149 385.785,180.848 386.500 C 179.650 389.348,178.213 392.207,177.915 392.333 C 177.742 392.407,177.600 392.812,177.600 393.233 C 177.600 393.655,177.420 394.000,177.200 394.000 C 176.980 394.000,176.800 394.360,176.800 394.800 C 176.800 395.240,176.641 395.600,176.447 395.600 C 176.147 395.600,175.961 395.973,175.444 397.600 C 175.160 398.495,172.962 402.628,172.715 402.733 C 172.542 402.807,172.400 403.212,172.400 403.633 C 172.400 404.055,172.262 404.400,172.094 404.400 C 171.845 404.400,170.349 407.270,170.217 408.000 C 170.109 408.598,167.781 413.021,167.515 413.133 C 167.342 413.207,167.200 413.612,167.200 414.033 C 167.200 414.455,167.041 414.800,166.847 414.800 C 166.547 414.800,166.361 415.173,165.844 416.800 C 165.560 417.695,163.362 421.828,163.115 421.933 C 162.942 422.007,162.800 422.412,162.800 422.833 C 162.800 423.255,162.664 423.600,162.498 423.600 C 162.331 423.600,161.949 424.185,161.648 424.900 C 160.450 427.748,159.013 430.607,158.715 430.733 C 158.542 430.807,158.400 431.212,158.400 431.633 C 158.400 432.055,158.220 432.400,158.000 432.400 C 157.780 432.400,157.600 432.686,157.600 433.036 C 157.600 433.646,156.123 435.159,155.500 435.187 C 155.335 435.194,155.200 434.750,155.200 434.200 C 155.200 433.650,155.020 433.200,154.800 433.200 C 154.580 433.200,154.400 432.581,154.400 431.824 C 154.400 431.067,154.220 430.336,154.000 430.200 C 153.780 430.064,153.600 429.344,153.600 428.600 C 153.600 427.856,153.402 427.125,153.160 426.975 C 152.914 426.823,152.818 426.210,152.942 425.588 C 153.095 424.827,152.982 424.402,152.590 424.251 C 152.189 424.098,152.085 423.675,152.247 422.864 C 152.381 422.195,152.293 421.581,152.040 421.425 C 151.798 421.275,151.600 420.533,151.600 419.776 C 151.600 419.019,151.420 418.400,151.200 418.400 C 150.980 418.400,150.800 417.781,150.800 417.024 C 150.800 416.267,150.620 415.536,150.400 415.400 C 150.180 415.264,150.000 414.533,150.000 413.776 C 150.000 413.019,149.820 412.400,149.600 412.400 C 149.380 412.400,149.200 411.781,149.200 411.024 C 149.200 410.267,149.003 409.525,148.762 409.376 C 148.520 409.227,148.402 408.570,148.498 407.916 C 148.613 407.128,148.480 406.652,148.102 406.507 C 147.695 406.351,147.602 405.917,147.775 404.991 C 147.954 404.040,147.858 403.631,147.416 403.462 C 146.981 403.295,146.881 402.893,147.057 402.015 C 147.212 401.238,147.138 400.800,146.850 400.800 C 146.592 400.800,146.400 400.119,146.400 399.200 C 146.400 398.320,146.220 397.600,146.000 397.600 C 145.780 397.600,145.600 396.970,145.600 396.200 C 145.600 395.430,145.420 394.800,145.200 394.800 C 144.980 394.800,144.800 394.181,144.800 393.424 C 144.800 392.667,144.620 391.936,144.400 391.800 C 144.180 391.664,144.000 390.944,144.000 390.200 C 144.000 389.456,143.803 388.725,143.562 388.576 C 143.320 388.427,143.198 387.793,143.290 387.168 C 143.392 386.471,143.255 385.953,142.935 385.831 C 142.591 385.699,142.493 385.233,142.647 384.464 C 142.781 383.795,142.693 383.181,142.440 383.025 C 142.198 382.875,142.000 382.133,142.000 381.376 C 142.000 380.619,141.820 380.000,141.600 380.000 C 141.380 380.000,141.200 379.381,141.200 378.624 C 141.200 377.867,141.020 377.136,140.800 377.000 C 140.580 376.864,140.400 376.133,140.400 375.376 C 140.400 374.619,140.220 374.000,140.000 374.000 C 139.780 374.000,139.600 373.381,139.600 372.624 C 139.600 371.867,139.403 371.125,139.162 370.976 C 138.920 370.827,138.802 370.170,138.898 369.516 C 139.013 368.728,138.880 368.252,138.502 368.107 C 138.095 367.951,138.002 367.517,138.175 366.591 C 138.354 365.640,138.258 365.231,137.816 365.062 C 137.381 364.895,137.281 364.493,137.457 363.615 C 137.612 362.838,137.538 362.400,137.250 362.400 C 136.992 362.400,136.800 361.719,136.800 360.800 C 136.800 359.920,136.620 359.200,136.400 359.200 C 136.180 359.200,136.000 358.581,136.000 357.824 C 136.000 357.067,135.820 356.336,135.600 356.200 C 135.380 356.064,135.200 355.333,135.200 354.576 C 135.200 353.819,135.020 353.200,134.800 353.200 C 134.580 353.200,134.400 352.581,134.400 351.824 C 134.400 351.067,134.203 350.325,133.962 350.176 C 133.720 350.027,133.598 349.393,133.690 348.768 C 133.799 348.025,133.657 347.554,133.280 347.409 C 132.876 347.254,132.773 346.833,132.938 346.009 C 133.068 345.361,133.000 344.723,132.787 344.592 C 132.574 344.460,132.400 343.733,132.400 342.976 C 132.400 342.219,132.220 341.600,132.000 341.600 C 131.780 341.600,131.600 340.981,131.600 340.224 C 131.600 339.467,131.420 338.736,131.200 338.600 C 130.980 338.464,130.800 337.733,130.800 336.976 C 130.800 336.219,130.620 335.600,130.400 335.600 C 130.180 335.600,130.000 334.981,130.000 334.224 C 130.000 333.467,129.820 332.736,129.600 332.600 C 129.380 332.464,129.200 331.733,129.200 330.976 C 129.200 330.219,129.000 329.600,128.755 329.600 C 128.467 329.600,128.400 329.125,128.565 328.246 C 128.745 327.287,128.660 326.832,128.273 326.683 C 127.921 326.548,127.790 326.052,127.902 325.284 C 127.998 324.630,127.880 323.973,127.638 323.824 C 127.397 323.675,127.200 323.113,127.200 322.576 C 127.200 322.039,127.020 321.600,126.800 321.600 C 126.580 321.600,126.400 321.322,126.400 320.982 C 126.400 319.694,124.700 318.600,122.699 318.600 C 121.654 318.600,120.799 318.735,120.799 318.900 M25.100 381.107 C 19.875 381.166,15.600 381.370,15.600 381.561 C 15.600 381.751,15.222 382.006,14.760 382.126 C 14.298 382.247,14.023 382.514,14.150 382.720 C 14.277 382.925,14.025 383.415,13.591 383.809 C 12.170 385.094,13.189 390.000,14.877 390.000 C 15.275 390.000,15.600 390.180,15.600 390.400 C 15.600 390.656,19.067 390.800,25.200 390.800 C 31.333 390.800,34.800 390.656,34.800 390.400 C 34.800 390.180,35.070 390.000,35.400 390.000 C 35.730 390.000,36.000 389.758,36.000 389.462 C 36.000 389.166,36.360 388.598,36.800 388.200 C 38.095 387.028,37.708 384.841,35.910 383.166 C 35.530 382.813,35.080 382.181,34.910 381.762 C 34.616 381.038,34.120 381.005,25.100 381.107 M369.200 381.340 C 369.200 381.526,368.660 382.183,368.000 382.800 C 367.340 383.417,366.800 384.209,366.800 384.560 C 366.800 384.912,366.620 385.200,366.400 385.200 C 365.679 385.200,365.980 387.458,366.800 388.200 C 367.240 388.598,367.601 389.121,367.603 389.362 C 367.611 390.517,369.830 390.800,378.880 390.800 C 384.239 390.800,388.000 390.647,388.000 390.428 C 388.000 390.223,388.391 389.998,388.870 389.928 C 390.821 389.641,392.012 385.100,390.400 384.093 C 389.960 383.818,389.600 383.235,389.600 382.797 C 389.600 382.267,389.332 382.000,388.800 382.000 C 388.360 382.000,388.000 381.826,388.000 381.614 C 388.000 381.380,384.292 381.183,378.600 381.114 C 373.429 381.051,369.199 381.153,369.200 381.340 " stroke="none" fill="#1997c6" fill-rule="evenodd"/></g></svg>